<svg xmlns="http://www.w3.org/2000/svg" width="375" viewBox="0 0 375 375" height="375" version="1.0"><path d="M 330.128906 148.9375 C 330.128906 150.277344 330.066406 151.613281 329.933594 152.945312 C 329.800781 154.277344 329.605469 155.597656 329.34375 156.910156 C 329.082031 158.222656 328.757812 159.519531 328.371094 160.800781 C 327.980469 162.082031 327.53125 163.339844 327.019531 164.578125 C 326.507812 165.8125 325.933594 167.023438 325.304688 168.203125 C 324.671875 169.382812 323.984375 170.53125 323.238281 171.644531 C 322.496094 172.757812 321.699219 173.832031 320.851562 174.863281 C 320 175.898438 319.101562 176.890625 318.15625 177.835938 C 317.207031 178.78125 316.21875 179.679688 315.183594 180.53125 C 314.148438 181.378906 313.074219 182.175781 311.960938 182.917969 C 310.847656 183.664062 309.699219 184.351562 308.519531 184.980469 C 307.335938 185.613281 306.128906 186.183594 304.890625 186.695312 C 303.652344 187.207031 302.394531 187.660156 301.113281 188.046875 C 299.832031 188.433594 298.535156 188.761719 297.222656 189.019531 C 295.90625 189.28125 294.585938 189.480469 293.25 189.609375 C 291.917969 189.742188 290.582031 189.808594 289.246094 189.808594 C 287.90625 189.808594 286.570312 189.742188 285.238281 189.609375 C 283.902344 189.480469 282.582031 189.28125 281.265625 189.019531 C 279.953125 188.761719 278.65625 188.433594 277.375 188.046875 C 276.09375 187.660156 274.835938 187.207031 273.597656 186.695312 C 272.359375 186.183594 271.152344 185.613281 269.96875 184.980469 C 268.789062 184.351562 267.640625 183.664062 266.527344 182.917969 C 265.414062 182.175781 264.339844 181.378906 263.304688 180.53125 C 262.269531 179.679688 261.28125 178.78125 260.332031 177.835938 C 259.386719 176.890625 258.488281 175.898438 257.636719 174.863281 C 256.789062 173.832031 255.992188 172.757812 255.25 171.644531 C 254.503906 170.53125 253.816406 169.382812 253.183594 168.203125 C 252.554688 167.023438 251.980469 165.8125 251.46875 164.578125 C 250.957031 163.339844 250.507812 162.082031 250.117188 160.800781 C 249.730469 159.519531 249.40625 158.222656 249.144531 156.910156 C 248.882812 155.597656 248.6875 154.277344 248.554688 152.945312 C 248.421875 151.613281 248.359375 150.277344 248.359375 148.9375 C 248.359375 147.597656 248.421875 146.265625 248.554688 144.933594 C 248.6875 143.601562 248.882812 142.277344 249.144531 140.964844 C 249.40625 139.652344 249.730469 138.355469 250.117188 137.074219 C 250.507812 135.792969 250.957031 134.535156 251.46875 133.296875 C 251.980469 132.0625 252.554688 130.851562 253.183594 129.671875 C 253.816406 128.492188 254.503906 127.34375 255.25 126.230469 C 255.992188 125.121094 256.789062 124.046875 257.636719 123.011719 C 258.488281 121.976562 259.386719 120.984375 260.332031 120.039062 C 261.28125 119.09375 262.269531 118.195312 263.304688 117.347656 C 264.339844 116.496094 265.414062 115.699219 266.527344 114.957031 C 267.640625 114.214844 268.789062 113.527344 269.96875 112.894531 C 271.152344 112.265625 272.359375 111.691406 273.597656 111.179688 C 274.835938 110.667969 276.09375 110.21875 277.375 109.828125 C 278.65625 109.441406 279.953125 109.117188 281.265625 108.855469 C 282.582031 108.59375 283.902344 108.398438 285.238281 108.265625 C 286.570312 108.132812 287.90625 108.070312 289.246094 108.070312 C 290.582031 108.070312 291.917969 108.132812 293.25 108.265625 C 294.585938 108.398438 295.90625 108.59375 297.222656 108.855469 C 298.535156 109.117188 299.832031 109.441406 301.113281 109.828125 C 302.394531 110.21875 303.652344 110.667969 304.890625 111.179688 C 306.128906 111.691406 307.335938 112.265625 308.519531 112.894531 C 309.699219 113.527344 310.847656 114.214844 311.960938 114.957031 C 313.074219 115.699219 314.148438 116.496094 315.183594 117.347656 C 316.21875 118.195312 317.207031 119.09375 318.15625 120.039062 C 319.101562 120.984375 320 121.976562 320.851562 123.011719 C 321.699219 124.046875 322.496094 125.121094 323.238281 126.230469 C 323.984375 127.34375 324.671875 128.492188 325.304688 129.671875 C 325.933594 130.851562 326.507812 132.0625 327.019531 133.296875 C 327.53125 134.535156 327.980469 135.792969 328.371094 137.074219 C 328.757812 138.355469 329.082031 139.652344 329.34375 140.964844 C 329.605469 142.277344 329.800781 143.601562 329.933594 144.933594 C 330.066406 146.265625 330.128906 147.597656 330.128906 148.9375 Z M 330.128906 148.9375"/><path d="M -0.609375 227.464844 C -0.609375 227.464844 27.035156 292.640625 111.933594 292.640625 C 207.296875 292.640625 211.875 264.089844 276.0625 264.089844 C 336.859375 264.089844 374.636719 271.515625 374.636719 271.515625 C 374.636719 271.515625 331.351562 233.492188 276.0625 233.492188 C 220.726562 233.492188 172.964844 261.242188 111.933594 261.242188 C 38.878906 261.242188 -0.609375 227.464844 -0.609375 227.464844 Z M -0.609375 227.464844"/><path d="M 233.605469 205.976562 C 190.597656 205.976562 99.984375 250.625 80.902344 224.632812 C 90.523438 219.691406 169.871094 171.121094 169.871094 171.121094 L 155.175781 138.578125 C 155.175781 138.578125 151.976562 125.285156 140.960938 128.960938 C 129.941406 132.621094 75.597656 153.484375 66.671875 156.898438 C 44.039062 165.601562 34.765625 148.457031 56.671875 135.703125 C 85.015625 119.152344 138.269531 92.871094 146.367188 88.542969 C 156.597656 83.035156 166.234375 82.046875 174.898438 96.851562 C 187.484375 118.398438 234.972656 192.203125 234.972656 192.203125 C 234.972656 192.203125 242.9375 205.976562 233.605469 205.976562 Z M 233.605469 205.976562"/></svg>