<svg xmlns="http://www.w3.org/2000/svg" width="375" viewBox="0 0 375 375" height="375" version="1.0"><defs><clipPath id="a"><path d="M 50.28125 56.113281 L 324 56.113281 L 324 318.613281 L 50.28125 318.613281 Z M 50.28125 56.113281"/></clipPath></defs><g clip-path="url(#a)"><path d="M 323.640625 212.96875 C 323.640625 206.132812 320.917969 199.761719 316.238281 195.050781 C 321.558594 189.238281 324.257812 181.4375 323.515625 173.335938 C 322.195312 158.878906 309.140625 147.546875 293.824219 147.546875 L 223.476562 147.546875 C 226.941406 136.980469 232.519531 117.609375 232.519531 102.046875 C 232.519531 77.375 211.53125 56.546875 198.351562 56.546875 C 186.515625 56.546875 178.054688 63.1875 177.699219 63.472656 C 176.347656 64.566406 175.570312 66.191406 175.570312 67.921875 L 175.570312 106.484375 L 142.769531 177.476562 L 141.402344 178.160156 L 141.402344 175.988281 C 141.402344 172.847656 138.851562 170.300781 135.707031 170.300781 L 78.753906 170.300781 C 63.058594 170.300781 50.28125 183.0625 50.28125 198.738281 L 50.28125 289.742188 C 50.28125 305.417969 63.058594 318.179688 78.753906 318.179688 L 112.925781 318.179688 C 125.25 318.179688 135.761719 310.332031 139.738281 299.386719 C 149.214844 304.257812 161.972656 306.816406 169.886719 306.816406 L 274.4375 306.816406 C 286.839844 306.816406 297.683594 298.457031 300.234375 286.941406 C 301.546875 281.015625 300.78125 275.042969 298.183594 269.855469 C 306.589844 265.625 312.25 256.96875 312.25 247.09375 C 312.25 243.066406 311.328125 239.210938 309.574219 235.71875 C 317.980469 231.488281 323.640625 222.832031 323.640625 212.96875 Z M 112.925781 306.804688 L 78.753906 306.804688 C 69.324219 306.804688 61.671875 299.148438 61.671875 289.742188 L 61.671875 198.738281 C 61.671875 189.332031 69.335938 181.675781 78.753906 181.675781 L 78.753906 181.730469 L 129.988281 181.730469 L 129.988281 187.417969 C 129.988281 187.453125 130.011719 187.476562 130.011719 187.511719 L 130.011719 289.742188 C 130.011719 299.148438 122.335938 306.804688 112.925781 306.804688 Z M 299.609375 227.015625 C 297.410156 227.269531 295.554688 228.757812 294.859375 230.863281 C 294.164062 232.957031 294.734375 235.277344 296.351562 236.789062 C 299.253906 239.53125 300.851562 243.191406 300.851562 247.105469 C 300.851562 254.273438 295.429688 260.3125 288.230469 261.132812 C 286.03125 261.382812 284.175781 262.871094 283.480469 264.976562 C 282.785156 267.070312 283.355469 269.390625 284.972656 270.902344 C 288.730469 274.441406 290.234375 279.402344 289.105469 284.484375 C 287.707031 290.820312 281.53125 295.429688 274.425781 295.429688 L 169.875 295.429688 C 161.414062 295.429688 147.789062 291.777344 141.402344 287.035156 L 141.402344 190.910156 L 149.613281 186.816406 C 150.765625 186.238281 151.6875 185.28125 152.234375 184.109375 L 186.402344 110.167969 C 186.746094 109.429688 186.925781 108.609375 186.925781 107.792969 L 186.925781 71.070312 C 189.296875 69.761719 193.40625 67.976562 198.316406 67.976562 C 204.558594 67.976562 221.097656 83.480469 221.097656 102.105469 C 221.097656 122.113281 210.195312 150.984375 210.082031 151.269531 C 209.421875 153.007812 209.648438 154.976562 210.722656 156.511719 C 211.792969 158.046875 213.535156 158.96875 215.414062 158.96875 L 293.789062 158.96875 C 303.289062 158.96875 311.351562 165.75 312.148438 174.417969 C 312.753906 180.902344 309.65625 187.066406 304.050781 190.511719 C 302.296875 191.582031 301.273438 193.527344 301.351562 195.574219 C 301.417969 197.625 302.605469 199.464844 304.4375 200.410156 C 309.246094 202.867188 312.230469 207.691406 312.230469 212.992188 C 312.21875 220.15625 306.796875 226.199219 299.609375 227.015625 Z M 299.609375 227.015625"/></g></svg>