<svg xmlns="http://www.w3.org/2000/svg" width="375" viewBox="0 0 375 375" height="375" version="1.0"><defs><clipPath id="a"><path d="M 36 38.230469 L 336 38.230469 L 336 337.480469 L 36 337.480469 Z M 36 38.230469"/></clipPath></defs><g clip-path="url(#a)"><path fill="#231F20" d="M 333.101562 86.3125 C 329.683594 77.402344 323.152344 67.820312 314.691406 59.335938 C 301.675781 46.320312 286.371094 38.230469 274.730469 38.230469 C 267.496094 38.230469 263.007812 41.1875 260.511719 43.671875 L 247.035156 57.15625 C 247.027344 57.15625 247.027344 57.160156 247.027344 57.160156 L 55.457031 248.832031 C 55.414062 248.875 55.386719 248.929688 55.351562 248.964844 C 55.222656 249.097656 55.121094 249.25 55.007812 249.390625 C 54.621094 249.839844 54.277344 250.308594 53.996094 250.804688 C 53.886719 250.996094 53.785156 251.183594 53.6875 251.386719 C 53.40625 251.953125 53.191406 252.539062 53.039062 253.144531 C 53.011719 253.25 52.953125 253.339844 52.933594 253.445312 L 41.464844 305.320312 C 41.460938 305.328125 41.464844 305.339844 41.460938 305.34375 L 36.84375 326.046875 C 36.144531 329.183594 37.097656 332.457031 39.367188 334.726562 C 41.140625 336.511719 43.542969 337.480469 46.007812 337.480469 C 46.679688 337.480469 47.363281 337.40625 48.035156 337.261719 L 68.753906 332.660156 C 68.757812 332.65625 68.765625 332.65625 68.769531 332.65625 L 120.65625 321.183594 C 120.757812 321.164062 120.839844 321.101562 120.949219 321.082031 C 121.550781 320.925781 122.136719 320.707031 122.714844 320.425781 C 122.914062 320.332031 123.097656 320.238281 123.289062 320.121094 C 123.785156 319.832031 124.253906 319.5 124.707031 319.109375 C 124.84375 318.996094 124.996094 318.890625 125.128906 318.769531 C 125.171875 318.726562 125.226562 318.695312 125.261719 318.65625 L 316.835938 127.011719 L 316.839844 127.007812 L 330.308594 113.515625 C 333.878906 109.953125 338.988281 101.691406 333.101562 86.3125 Z M 273.609375 57.125 C 273.765625 57.082031 274.125 57.011719 274.730469 57.011719 C 280.070312 57.011719 290.699219 61.894531 301.40625 72.601562 C 314.699219 85.941406 317.835938 97.683594 316.898438 100.367188 L 310.199219 107.082031 L 266.945312 63.800781 Z M 118.628906 298.738281 L 75.367188 255.464844 L 253.664062 77.078125 L 296.929688 120.367188 Z M 69.75 313.207031 L 60.902344 304.347656 L 67.566406 274.210938 L 99.882812 306.542969 Z M 69.75 313.207031"/></g></svg>