<svg xmlns="http://www.w3.org/2000/svg" width="375" viewBox="0 0 375 375" height="375" version="1.0"><defs><clipPath id="a"><path d="M 56.878906 177.375 L 317.878906 177.375 L 317.878906 197.625 L 56.878906 197.625 Z M 56.878906 177.375"/></clipPath><clipPath id="b"><path d="M 177.378906 57.113281 L 197.628906 57.113281 L 197.628906 318.113281 L 177.378906 318.113281 Z M 177.378906 57.113281"/></clipPath></defs><path fill="#FF8A00" d="M 187.539062 36.039062 C 103.867188 36.039062 36.039062 103.867188 36.039062 187.539062 C 36.039062 271.210938 103.867188 339.039062 187.539062 339.039062 C 271.210938 339.039062 339.039062 271.210938 339.039062 187.539062 C 339.039062 103.867188 271.210938 36.039062 187.539062 36.039062"/><g clip-path="url(#a)"><path fill="#FFF" d="M 56.878906 177.449219 L 317.878906 177.449219 L 317.878906 197.554688 L 56.878906 197.554688 Z M 56.878906 177.449219"/></g><g clip-path="url(#b)"><path fill="#FFF" d="M 177.449219 318.113281 L 177.449219 57.113281 L 197.554688 57.113281 L 197.554688 318.113281 Z M 177.449219 318.113281"/></g></svg>