<svg xmlns="http://www.w3.org/2000/svg" width="375" viewBox="0 0 375 375" height="375" version="1.0"><defs><clipPath id="a"><path d="M 0 71.398438 L 375 71.398438 L 375 303.898438 L 0 303.898438 Z M 0 71.398438"/></clipPath></defs><g clip-path="url(#a)"><path d="M 305.394531 164.683594 C 298.277344 164.683594 291.457031 165.734375 284.933594 167.761719 L 250.007812 86.410156 L 260.425781 86.410156 C 264.546875 86.410156 267.921875 83.03125 267.921875 78.90625 C 267.921875 74.777344 264.546875 71.398438 260.425781 71.398438 L 218.453125 71.398438 C 214.332031 71.398438 210.960938 74.777344 210.960938 78.90625 C 210.960938 83.03125 214.332031 86.410156 218.453125 86.410156 L 233.746094 86.410156 L 257.953125 142.695312 L 153.546875 142.695312 L 146.277344 126.410156 L 157.296875 126.410156 C 161.417969 126.410156 164.789062 123.035156 164.789062 118.90625 C 164.789062 114.777344 161.417969 111.402344 157.296875 111.402344 L 115.25 111.402344 C 111.125 111.402344 107.753906 114.777344 107.753906 118.90625 C 107.753906 123.035156 111.125 126.410156 115.25 126.410156 L 129.863281 126.410156 L 140.054688 149.300781 L 111.800781 178.945312 C 100.109375 169.9375 85.417969 164.609375 69.605469 164.609375 C 31.304688 164.683594 0.125 195.90625 0.125 234.253906 C 0.125 272.605469 31.304688 303.824219 69.605469 303.824219 C 106.777344 303.824219 137.207031 274.480469 139.007812 237.78125 L 178.429688 235.53125 L 188.472656 258.046875 L 184.726562 258.046875 C 180.605469 258.046875 177.230469 261.421875 177.230469 265.550781 C 177.230469 269.679688 180.605469 273.054688 184.726562 273.054688 L 214.03125 273.054688 C 218.15625 273.054688 221.527344 269.679688 221.527344 265.550781 C 221.527344 261.421875 218.15625 258.046875 214.03125 258.046875 L 204.886719 258.046875 L 192.746094 230.804688 L 265.449219 160.332031 L 271.144531 173.691406 C 250.082031 185.699219 235.84375 208.363281 235.84375 234.253906 C 235.84375 272.605469 267.023438 303.824219 305.320312 303.824219 C 343.621094 303.824219 374.875 272.679688 374.875 234.253906 C 374.875 195.832031 343.695312 164.683594 305.394531 164.683594 Z M 112.25 200.332031 C 117.570312 207.011719 121.394531 214.96875 123.042969 223.671875 L 88.117188 225.699219 Z M 69.605469 288.890625 C 39.546875 288.890625 15.113281 264.347656 15.113281 234.253906 C 15.113281 204.160156 39.546875 179.695312 69.605469 179.695312 C 81.445312 179.695312 92.464844 183.523438 101.382812 189.976562 L 64.132812 229.078125 C 62.035156 231.328125 61.433594 234.628906 62.78125 237.40625 C 63.980469 240.109375 66.679688 241.761719 69.605469 241.761719 L 70.054688 241.761719 L 123.941406 238.683594 C 121.695312 266.75 98.234375 288.890625 69.605469 288.890625 Z M 138.183594 222.847656 C 136.085938 210.238281 130.613281 198.757812 122.667969 189.375 L 146.652344 164.160156 L 171.910156 220.820312 Z M 186.226562 216.242188 L 160.21875 157.707031 L 246.5625 157.707031 Z M 305.394531 288.890625 C 275.339844 288.890625 250.90625 264.425781 250.90625 234.332031 C 250.90625 214.59375 261.476562 197.257812 277.214844 187.648438 L 298.574219 237.332031 C 299.773438 240.183594 302.546875 241.835938 305.472656 241.835938 C 306.445312 241.835938 307.496094 241.609375 308.394531 241.234375 C 312.21875 239.582031 313.941406 235.15625 312.292969 231.402344 L 290.929688 181.644531 C 295.503906 180.371094 300.375 179.695312 305.394531 179.695312 C 335.453125 179.695312 359.886719 204.160156 359.886719 234.253906 C 359.886719 264.347656 335.453125 288.890625 305.394531 288.890625 Z M 305.394531 288.890625"/></g></svg>