<svg xmlns="http://www.w3.org/2000/svg" xmlns:xlink="http://www.w3.org/1999/xlink" width="500" zoomAndPan="magnify" viewBox="0 0 375 374.999991" height="500" preserveAspectRatio="xMidYMid meet" version="1.0"><defs><clipPath id="id1"><path d="M 41.859375 31 L 332.859375 31 L 332.859375 344 L 41.859375 344 Z M 41.859375 31 " clip-rule="nonzero"/></clipPath></defs><path fill="rgb(0%, 0%, 0%)" d="M 216.855469 93.984375 L 224.546875 93.984375 C 226.039062 93.984375 227.25 92.773438 227.25 91.28125 L 227.25 62.617188 C 227.25 61.125 226.039062 59.914062 224.546875 59.914062 L 216.855469 59.914062 C 215.363281 59.914062 214.152344 61.125 214.152344 62.617188 L 214.152344 91.28125 C 214.152344 92.773438 215.363281 93.984375 216.855469 93.984375 Z M 216.855469 93.984375 " fill-opacity="1" fill-rule="nonzero"/><path fill="rgb(0%, 0%, 0%)" d="M 194.261719 93.984375 L 201.957031 93.984375 C 203.449219 93.984375 204.660156 92.773438 204.660156 91.28125 L 204.660156 62.617188 C 204.660156 61.125 203.449219 59.914062 201.957031 59.914062 L 194.261719 59.914062 C 192.769531 59.914062 191.5625 61.125 191.5625 62.617188 L 191.5625 91.28125 C 191.5625 92.773438 192.769531 93.984375 194.261719 93.984375 Z M 194.261719 93.984375 " fill-opacity="1" fill-rule="nonzero"/><path fill="rgb(0%, 0%, 0%)" d="M 141.820312 244.351562 L 206.375 244.351562 C 209.457031 244.351562 211.953125 241.851562 211.953125 238.769531 L 211.953125 235.683594 C 211.953125 232.601562 209.457031 230.101562 206.375 230.101562 L 141.820312 230.101562 C 138.742188 230.101562 136.242188 232.601562 136.242188 235.683594 L 136.242188 238.769531 C 136.242188 241.851562 138.742188 244.351562 141.820312 244.351562 Z M 141.820312 244.351562 " fill-opacity="1" fill-rule="nonzero"/><path fill="rgb(0%, 0%, 0%)" d="M 206.375 292.792969 L 141.820312 292.792969 C 138.742188 292.792969 136.242188 295.292969 136.242188 298.375 L 136.242188 301.460938 C 136.242188 304.542969 138.742188 307.042969 141.820312 307.042969 L 206.375 307.042969 C 209.457031 307.042969 211.953125 304.542969 211.953125 301.460938 L 211.953125 298.375 C 211.953125 295.292969 209.457031 292.792969 206.375 292.792969 Z M 206.375 292.792969 " fill-opacity="1" fill-rule="nonzero"/><path fill="rgb(0%, 0%, 0%)" d="M 227.855469 270.117188 L 227.855469 267.03125 C 227.855469 263.945312 225.359375 261.449219 222.277344 261.449219 L 141.820312 261.449219 C 138.738281 261.449219 136.242188 263.945312 136.242188 267.03125 L 136.242188 270.117188 C 136.242188 273.199219 138.738281 275.695312 141.820312 275.695312 L 222.277344 275.695312 C 225.359375 275.695312 227.855469 273.199219 227.855469 270.117188 Z M 227.855469 270.117188 " fill-opacity="1" fill-rule="nonzero"/><path fill="rgb(0%, 0%, 0%)" d="M 230.820312 292.792969 C 227.738281 292.792969 225.242188 295.292969 225.242188 298.375 L 225.242188 301.460938 C 225.242188 304.542969 227.738281 307.042969 230.820312 307.042969 C 233.902344 307.042969 236.398438 304.542969 236.398438 301.460938 L 236.398438 298.375 C 236.398438 295.292969 233.902344 292.792969 230.820312 292.792969 Z M 230.820312 292.792969 " fill-opacity="1" fill-rule="nonzero"/><g clip-path="url(#id1)"><path fill="rgb(0%, 0%, 0%)" d="M 327.75 86.238281 L 293.160156 39.917969 L 292.707031 39.375 C 288.304688 34.640625 282.167969 31.910156 275.871094 31.886719 L 65.667969 31.121094 C 59.597656 31.101562 53.742188 33.523438 49.300781 37.945312 C 44.585938 42.648438 41.878906 49.269531 41.878906 56.117188 L 41.878906 318.753906 C 41.878906 332.539062 52.515625 343.75 65.585938 343.75 L 309.136719 343.75 C 322.207031 343.75 332.839844 332.535156 332.839844 318.753906 L 332.839844 103.457031 C 332.839844 97.46875 332.214844 91.25 327.75 86.238281 Z M 124.515625 45.472656 L 245.515625 45.472656 L 245.515625 116.996094 C 245.515625 119.082031 243.753906 120.847656 241.667969 120.847656 L 128.363281 120.847656 C 126.277344 120.847656 124.515625 119.085938 124.515625 116.996094 Z M 269.960938 330.648438 L 106.003906 330.648438 L 106.003906 211.394531 C 106.003906 206.335938 110.117188 202.222656 115.171875 202.222656 L 260.792969 202.222656 C 265.847656 202.222656 269.960938 206.335938 269.960938 211.394531 Z M 319.742188 318.757812 C 319.742188 325.3125 314.984375 330.648438 309.136719 330.648438 L 283.054688 330.648438 L 283.054688 211.394531 C 283.054688 199.109375 273.070312 189.117188 260.792969 189.117188 L 115.171875 189.117188 C 102.894531 189.117188 92.90625 199.109375 92.90625 211.394531 L 92.90625 330.648438 L 65.585938 330.648438 C 59.734375 330.648438 54.976562 325.3125 54.976562 318.757812 L 54.976562 56.121094 C 54.976562 52.730469 56.277344 49.492188 58.546875 47.234375 C 60.492188 45.292969 62.988281 44.226562 65.585938 44.226562 C 65.597656 44.226562 65.609375 44.226562 65.621094 44.226562 L 111.421875 44.394531 L 111.421875 117 C 111.421875 126.347656 119.023438 133.953125 128.363281 133.953125 L 241.667969 133.953125 C 251.011719 133.953125 258.613281 126.347656 258.613281 117 L 258.613281 44.929688 L 265.046875 44.953125 L 275.824219 44.992188 C 278.457031 45.003906 280.960938 46.09375 282.910156 48.078125 L 317.449219 94.335938 L 317.902344 94.878906 C 319.4375 96.53125 319.746094 99.386719 319.746094 103.457031 L 319.746094 318.757812 Z M 319.742188 318.757812 " fill-opacity="1" fill-rule="nonzero"/></g></svg>