<svg xmlns="http://www.w3.org/2000/svg" width="375" viewBox="0 0 375 375" height="375" version="1.0"><defs><clipPath id="a"><path d="M 0 159 L 225 159 L 225 351.683594 L 0 351.683594 Z M 0 159"/></clipPath><clipPath id="b"><path d="M 0 160 L 224 160 L 224 351.683594 L 0 351.683594 Z M 0 160"/></clipPath></defs><path transform="matrix(.79245 0 0 .79214 -15.407 -12.068)" fill="none" d="M 181.262142 52.752259 C 199.707714 44.56142 220.100375 50.178136 237.550222 58.773339 C 257.016167 68.941617 276.906035 83.745288 284.896488 106.976499 C 288.480115 116.45933 286.123892 127.520168 279.967153 134.951591 C 275.126545 139.552465 268.235334 138.270335 262.433507 137.619408 C 249.257393 134.473258 241.188071 121.444843 230.949842 112.908816 C 222.077038 104.219919 212.627502 94.815988 200.614712 92.41446 C 189.893408 90.446883 180.586823 98.331983 173.715329 106.508028 C 163.378513 120.690359 156.847144 137.727896 151.75514 154.933095 C 148.447556 169.938948 141.408465 184.254424 142.256311 200.08873 C 141.250727 185.48231 137.499502 171.26546 137.14459 156.590002 C 136.469271 137.663789 138.62832 118.629089 142.906983 100.334079 C 150.744626 80.72242 162.860933 61.312943 181.262142 52.752259 Z M 181.262142 52.752259" stroke="#000" stroke-width=".1" stroke-miterlimit="10"/><path d="M 128.234375 29.71875 C 142.851562 23.230469 159.011719 27.679688 172.839844 34.488281 C 188.265625 42.542969 204.027344 54.269531 210.359375 72.671875 C 213.199219 80.183594 211.332031 88.945312 206.453125 94.832031 C 202.617188 98.476562 197.15625 97.460938 192.558594 96.945312 C 182.117188 94.453125 175.722656 84.132812 167.609375 77.371094 C 160.578125 70.488281 153.089844 63.039062 143.570312 61.136719 C 135.074219 59.578125 127.699219 65.824219 122.253906 72.300781 C 114.0625 83.535156 108.886719 97.03125 104.851562 110.660156 C 102.230469 122.546875 96.652344 133.886719 97.324219 146.429688 C 96.527344 134.859375 93.554688 123.597656 93.273438 111.972656 C 92.738281 96.980469 94.449219 81.902344 97.839844 67.410156 C 104.050781 51.875 113.652344 36.5 128.234375 29.71875 Z M 128.234375 29.71875"/><path transform="matrix(.79245 0 0 .79214 -15.407 -12.068)" fill="none" d="M 349.451064 65.292477 C 362.804633 63.571464 376.84338 69.395293 385.804912 80.574481 C 391.887712 88.898464 395.969201 99.377412 395.90512 110.20648 C 394.727009 123.37297 388.767442 136.38659 378.820044 143.951158 C 367.098084 153.192357 351.072815 155.115552 337.886843 148.709833 C 318.287806 140.435162 306.876394 112.386101 316.947026 91.196436 C 322.615762 76.787266 335.68343 67.407992 349.451064 65.292477 Z M 349.451064 65.292477" stroke="#000" stroke-width=".1" stroke-miterlimit="10"/><path d="M 261.515625 39.652344 C 272.097656 38.289062 283.222656 42.902344 290.324219 51.757812 C 295.144531 58.351562 298.378906 66.652344 298.328125 75.230469 C 297.394531 85.660156 292.671875 95.96875 284.789062 101.960938 C 275.5 109.28125 262.800781 110.804688 252.351562 105.730469 C 236.820312 99.175781 227.777344 76.957031 235.757812 60.171875 C 240.25 48.757812 250.605469 41.328125 261.515625 39.652344 Z M 261.515625 39.652344"/><path transform="matrix(.79245 0 0 .79214 -15.407 -12.068)" fill="none" d="M 488.468179 141.830712 C 489.261802 141.781399 490.060354 141.756743 490.863836 141.776468 C 490.528641 149.587599 492.357425 157.388867 491.199031 165.170411 C 489.345601 178.544014 484.500064 191.103957 479.255251 203.215155 C 467.730465 231.801725 445.932944 255.407712 419.511707 266.512931 C 407.380613 271.271606 392.986953 270.906692 382.058617 262.784891 C 364.377091 249.953728 350.476365 230.381519 344.393566 207.786442 C 340.543755 195.58155 340.410663 180.930748 347.03076 169.86991 C 350.338344 165.027404 354.809251 159.61287 360.788535 159.977784 C 366.969921 160.608986 372.490777 164.736459 376.222284 170.116474 C 385.006359 182.932843 386.845002 199.610397 394.086195 213.299601 C 400.144348 222.126574 409.938938 232.615384 420.768687 227.447414 C 433.821567 221.312914 444.804127 210.878348 455.416986 200.645964 C 468.839566 187.8148 478.175727 170.688501 485.628882 153.04935 C 487.1274 149.51363 488.172419 145.741209 488.468179 141.830712 Z M 488.468179 141.830712" stroke="#000" stroke-width=".1" stroke-miterlimit="10"/><path d="M 371.679688 100.28125 C 372.308594 100.242188 372.941406 100.222656 373.578125 100.238281 C 373.3125 106.425781 374.761719 112.605469 373.84375 118.769531 C 372.375 129.363281 368.535156 139.3125 364.378906 148.90625 C 355.246094 171.550781 337.972656 190.25 317.035156 199.046875 C 307.421875 202.816406 296.015625 202.527344 287.355469 196.09375 C 273.34375 185.929688 262.328125 170.425781 257.507812 152.527344 C 254.457031 142.859375 254.351562 131.253906 259.597656 122.492188 C 262.21875 118.65625 265.761719 114.367188 270.5 114.65625 C 275.398438 115.15625 279.773438 118.425781 282.730469 122.6875 C 289.691406 132.839844 291.148438 146.050781 296.886719 156.894531 C 301.6875 163.886719 309.449219 172.195312 318.03125 168.101562 C 328.375 163.242188 337.078125 154.976562 345.488281 146.871094 C 356.125 136.707031 363.523438 123.140625 369.429688 109.167969 C 370.617188 106.367188 371.445312 103.378906 371.679688 100.28125 Z M 371.679688 100.28125"/><g clip-path="url(#a)"><path transform="matrix(.79245 0 0 .79214 -15.407 -12.068)" fill="none" d="M 162.397575 223.808137 C 170.161278 216.499995 181.626912 217.210098 190.657455 220.864169 C 199.727432 225.154373 209.285413 228.468186 217.566696 234.568167 C 230.422403 243.725534 242.711236 253.997369 253.703654 265.797897 C 266.125579 276.962291 277.660224 289.418678 287.543541 303.388965 C 294.838957 312.930971 302.45478 324.07564 301.878048 337.286512 C 296.490285 356.538188 281.652985 370.612031 266.219236 380.030756 C 245.752636 391.604446 222.919955 396.195458 201.043564 403.296486 C 191.58417 406.689199 181.651559 407.926948 171.812606 409.105521 C 160.672308 409.776174 149.472858 412.330571 138.342419 410.136157 C 145.475167 404.371502 154.111363 401.807242 161.953935 397.536763 C 184.46621 386.732351 205.662352 372.875484 227.597894 360.729767 C 236.89462 355.72946 245.994173 349.353328 251.307997 339.170256 C 251.022095 336.93146 250.746053 334.697595 250.479869 332.473592 C 244.234401 325.441602 236.519991 320.416638 228.573902 316.160953 C 219.301822 324.682187 208.610094 331.161875 200.067556 340.679225 C 176.628566 360.078839 150.71505 375.286875 125.752896 392.067985 C 92.144688 413.070262 60.355404 437.549084 26.106382 457.308681 C 24.114931 458.107547 22.069257 458.723955 19.979218 459.16777 C 33.125756 443.234838 48.441201 429.678778 61.390565 413.52887 C 80.072746 391.767177 98.759856 369.995622 118.255377 349.12649 C 138.840282 327.083715 158.853383 304.390012 177.93484 280.72485 C 169.885236 272.455111 159.494197 264.831368 157.049246 252.148143 C 154.7226 242.551892 156.092955 231.214904 162.397575 223.808137 Z M 162.397575 223.808137" stroke="#000" stroke-width=".1" stroke-miterlimit="10"/></g><g clip-path="url(#b)"><path d="M 113.285156 165.21875 C 119.4375 159.429688 128.523438 159.992188 135.679688 162.886719 C 142.867188 166.285156 150.441406 168.910156 157.003906 173.742188 C 167.191406 180.996094 176.929688 189.132812 185.640625 198.480469 C 195.484375 207.324219 204.625 217.191406 212.457031 228.257812 C 218.238281 235.816406 224.273438 244.644531 223.816406 255.109375 C 219.546875 270.359375 207.789062 281.507812 195.558594 288.96875 C 179.339844 298.136719 161.246094 301.773438 143.910156 307.398438 C 136.414062 310.085938 128.542969 311.066406 120.746094 312 C 111.917969 312.53125 103.042969 314.554688 94.222656 312.816406 C 99.875 308.25 106.71875 306.21875 112.933594 302.835938 C 130.773438 294.277344 147.570312 283.300781 164.953125 273.679688 C 172.320312 269.71875 179.53125 264.667969 183.742188 256.601562 C 183.515625 254.828125 183.296875 253.058594 183.085938 251.296875 C 178.136719 245.726562 172.023438 241.746094 165.726562 238.375 C 158.378906 245.125 149.90625 250.257812 143.136719 257.796875 C 124.5625 273.164062 104.027344 285.210938 84.246094 298.503906 C 57.613281 315.140625 32.421875 334.53125 5.28125 350.183594 C 3.703125 350.816406 2.082031 351.304688 0.425781 351.65625 C 10.84375 339.035156 22.980469 328.296875 33.242188 315.503906 C 48.046875 298.265625 62.855469 281.019531 78.304688 264.488281 C 94.617188 247.027344 110.476562 229.050781 125.597656 210.304688 C 119.21875 203.753906 110.984375 197.714844 109.046875 187.667969 C 107.203125 180.066406 108.289062 171.085938 113.285156 165.21875 Z M 113.285156 165.21875"/></g></svg>