<svg xmlns="http://www.w3.org/2000/svg" width="375" viewBox="0 0 375 375" height="375" version="1.0"><defs><clipPath id="a"><path d="M 178 64.109375 L 196.691406 64.109375 L 196.691406 310.859375 L 178 310.859375 Z M 178 64.109375"/></clipPath><clipPath id="b"><path d="M 64.132812 178 L 310.882812 178 L 310.882812 196.6875 L 64.132812 196.6875 Z M 64.132812 178"/></clipPath></defs><path fill="#FF8A00" d="M 187.539062 36.039062 C 103.867188 36.039062 36.039062 103.867188 36.039062 187.539062 C 36.039062 271.210938 103.867188 339.039062 187.539062 339.039062 C 271.210938 339.039062 339.039062 271.210938 339.039062 187.539062 C 339.039062 103.867188 271.210938 36.039062 187.539062 36.039062"/><path fill="#FFF" d="M 187.476562 46.476562 C 109.605469 46.476562 46.476562 109.605469 46.476562 187.476562 C 46.476562 265.347656 109.605469 328.476562 187.476562 328.476562 C 265.347656 328.476562 328.476562 265.347656 328.476562 187.476562 C 328.476562 109.605469 265.347656 46.476562 187.476562 46.476562"/><g clip-path="url(#a)"><path fill="#FF8A00" d="M 178.007812 310.859375 L 178.007812 64.109375 L 196.625 64.109375 L 196.625 310.859375 Z M 178.007812 310.859375"/></g><g clip-path="url(#b)"><path fill="#FF8A00" d="M 64.132812 178.003906 L 310.882812 178.003906 L 310.882812 196.625 L 64.132812 196.625 Z M 64.132812 178.003906"/></g></svg>