<svg xmlns="http://www.w3.org/2000/svg" xmlns:xlink="http://www.w3.org/1999/xlink" width="500" zoomAndPan="magnify" viewBox="0 0 375 374.999991" height="500" preserveAspectRatio="xMidYMid meet" version="1.0"><path fill="rgb(100%, 8.628845%, 8.628845%)" d="M 342.386719 365.554688 L 32.472656 365.554688 C 19.707031 365.554688 9.304688 355.152344 9.304688 342.386719 L 9.304688 32.472656 C 9.304688 19.707031 19.707031 9.304688 32.472656 9.304688 L 342.386719 9.304688 C 355.152344 9.304688 365.554688 19.707031 365.554688 32.472656 L 365.554688 342.386719 C 365.554688 355.152344 355.152344 365.554688 342.386719 365.554688 " fill-opacity="1" fill-rule="nonzero"/><path fill="rgb(100%, 100%, 100%)" d="M 329.597656 45.402344 C 321.765625 37.546875 309.023438 37.546875 301.191406 45.402344 L 187.5 159.070312 L 73.832031 45.402344 C 65.976562 37.546875 53.261719 37.546875 45.402344 45.402344 C 37.546875 53.261719 37.546875 65.976562 45.402344 73.832031 L 159.070312 187.5 L 45.402344 301.167969 C 37.546875 309.023438 37.546875 321.738281 45.402344 329.597656 C 53.261719 337.453125 65.976562 337.453125 73.832031 329.597656 L 187.5 215.902344 L 301.191406 329.597656 C 309.023438 337.453125 321.765625 337.453125 329.597656 329.597656 C 337.425781 321.738281 337.425781 309.023438 329.597656 301.167969 L 215.902344 187.5 L 329.597656 73.832031 C 337.425781 65.976562 337.425781 53.261719 329.597656 45.402344 " fill-opacity="1" fill-rule="nonzero"/></svg>